<svg id="visual" viewBox="0 0 900 600" width="900" height="600" xmlns="http://www.w3.org/2000/svg" xmlns:xlink="http://www.w3.org/1999/xlink" version="1.1"><rect x="0" y="0" width="900" height="600" fill="#daefff"></rect><path d="M0 445L9.3 447.3C18.7 449.7 37.3 454.3 56.2 455C75 455.7 94 452.3 112.8 456C131.7 459.7 150.3 470.3 169 472.7C187.7 475 206.3 469 225 463.8C243.7 458.7 262.3 454.3 281.2 454.8C300 455.3 319 460.7 337.8 463.2C356.7 465.7 375.3 465.3 394 465.5C412.7 465.7 431.3 466.3 450 467C468.7 467.7 487.3 468.3 506.2 464.8C525 461.3 544 453.7 562.8 450C581.7 446.3 600.3 446.7 619 452C637.7 457.3 656.3 467.7 675 474.2C693.7 480.7 712.3 483.3 731.2 480.8C750 478.3 769 470.7 787.8 466.3C806.7 462 825.3 461 844 460C862.7 459 881.3 458 890.7 457.5L900 457L900 601L890.7 601C881.3 601 862.7 601 844 601C825.3 601 806.7 601 787.8 601C769 601 750 601 731.2 601C712.3 601 693.7 601 675 601C656.3 601 637.7 601 619 601C600.3 601 581.7 601 562.8 601C544 601 525 601 506.2 601C487.3 601 468.7 601 450 601C431.3 601 412.7 601 394 601C375.3 601 356.7 601 337.8 601C319 601 300 601 281.2 601C262.3 601 243.7 601 225 601C206.3 601 187.7 601 169 601C150.3 601 131.7 601 112.8 601C94 601 75 601 56.2 601C37.3 601 18.7 601 9.3 601L0 601Z" fill="#ff4b3e"></path><path d="M0 482L9.3 482.3C18.7 482.7 37.3 483.3 56.2 481.8C75 480.3 94 476.7 112.8 478.8C131.7 481 150.3 489 169 488.2C187.7 487.3 206.3 477.7 225 473.2C243.7 468.7 262.3 469.3 281.2 468.5C300 467.7 319 465.3 337.8 468.2C356.7 471 375.3 479 394 483C412.7 487 431.3 487 450 485.3C468.7 483.7 487.3 480.3 506.2 478.7C525 477 544 477 562.8 476.8C581.7 476.7 600.3 476.3 619 475.3C637.7 474.3 656.3 472.7 675 470.8C693.7 469 712.3 467 731.2 471.5C750 476 769 487 787.8 491C806.7 495 825.3 492 844 493.2C862.7 494.3 881.3 499.7 890.7 502.3L900 505L900 601L890.7 601C881.3 601 862.7 601 844 601C825.3 601 806.7 601 787.8 601C769 601 750 601 731.2 601C712.3 601 693.7 601 675 601C656.3 601 637.7 601 619 601C600.3 601 581.7 601 562.8 601C544 601 525 601 506.2 601C487.3 601 468.7 601 450 601C431.3 601 412.7 601 394 601C375.3 601 356.7 601 337.8 601C319 601 300 601 281.2 601C262.3 601 243.7 601 225 601C206.3 601 187.7 601 169 601C150.3 601 131.7 601 112.8 601C94 601 75 601 56.2 601C37.3 601 18.7 601 9.3 601L0 601Z" fill="#ff5557"></path><path d="M0 496L9.3 494.7C18.7 493.3 37.3 490.7 56.2 488C75 485.3 94 482.7 112.8 484.8C131.7 487 150.3 494 169 500.3C187.7 506.7 206.3 512.3 225 509.5C243.7 506.7 262.3 495.3 281.2 491.3C300 487.3 319 490.7 337.8 492.8C356.7 495 375.3 496 394 496.5C412.7 497 431.3 497 450 499.8C468.7 502.7 487.3 508.3 506.2 508.3C525 508.3 544 502.7 562.8 501.5C581.7 500.3 600.3 503.7 619 500.7C637.7 497.7 656.3 488.3 675 486.5C693.7 484.7 712.3 490.3 731.2 494C750 497.7 769 499.3 787.8 502.2C806.7 505 825.3 509 844 506.5C862.7 504 881.3 495 890.7 490.5L900 486L900 601L890.7 601C881.3 601 862.7 601 844 601C825.3 601 806.7 601 787.8 601C769 601 750 601 731.2 601C712.3 601 693.7 601 675 601C656.3 601 637.7 601 619 601C600.3 601 581.7 601 562.8 601C544 601 525 601 506.2 601C487.3 601 468.7 601 450 601C431.3 601 412.7 601 394 601C375.3 601 356.7 601 337.8 601C319 601 300 601 281.2 601C262.3 601 243.7 601 225 601C206.3 601 187.7 601 169 601C150.3 601 131.7 601 112.8 601C94 601 75 601 56.2 601C37.3 601 18.7 601 9.3 601L0 601Z" fill="#ff616e"></path><path d="M0 516L9.3 518.7C18.7 521.3 37.3 526.7 56.2 529C75 531.3 94 530.7 112.8 525C131.7 519.3 150.3 508.7 169 504.7C187.7 500.7 206.3 503.3 225 505C243.7 506.7 262.3 507.3 281.2 509.7C300 512 319 516 337.8 516.2C356.7 516.3 375.3 512.7 394 510.8C412.7 509 431.3 509 450 508.3C468.7 507.7 487.3 506.3 506.2 507.7C525 509 544 513 562.8 516.3C581.7 519.7 600.3 522.3 619 520.3C637.7 518.3 656.3 511.7 675 510.5C693.7 509.3 712.3 513.7 731.2 514.5C750 515.3 769 512.7 787.8 515C806.7 517.3 825.3 524.7 844 523.8C862.7 523 881.3 514 890.7 509.5L900 505L900 601L890.7 601C881.3 601 862.7 601 844 601C825.3 601 806.7 601 787.8 601C769 601 750 601 731.2 601C712.3 601 693.7 601 675 601C656.3 601 637.7 601 619 601C600.3 601 581.7 601 562.8 601C544 601 525 601 506.2 601C487.3 601 468.7 601 450 601C431.3 601 412.7 601 394 601C375.3 601 356.7 601 337.8 601C319 601 300 601 281.2 601C262.3 601 243.7 601 225 601C206.3 601 187.7 601 169 601C150.3 601 131.7 601 112.8 601C94 601 75 601 56.2 601C37.3 601 18.7 601 9.3 601L0 601Z" fill="#ff6e83"></path><path d="M0 534L9.3 534.5C18.7 535 37.3 536 56.2 535.3C75 534.7 94 532.3 112.8 528.7C131.7 525 150.3 520 169 521.2C187.7 522.3 206.3 529.7 225 531.7C243.7 533.7 262.3 530.3 281.2 529.7C300 529 319 531 337.8 532C356.7 533 375.3 533 394 533.8C412.7 534.7 431.3 536.3 450 537.3C468.7 538.3 487.3 538.7 506.2 539.7C525 540.7 544 542.3 562.8 539.3C581.7 536.3 600.3 528.7 619 528.7C637.7 528.7 656.3 536.3 675 538.3C693.7 540.3 712.3 536.7 731.2 535.3C750 534 769 535 787.8 536.3C806.7 537.7 825.3 539.3 844 541C862.7 542.7 881.3 544.3 890.7 545.2L900 546L900 601L890.7 601C881.3 601 862.7 601 844 601C825.3 601 806.7 601 787.8 601C769 601 750 601 731.2 601C712.3 601 693.7 601 675 601C656.3 601 637.7 601 619 601C600.3 601 581.7 601 562.8 601C544 601 525 601 506.2 601C487.3 601 468.7 601 450 601C431.3 601 412.7 601 394 601C375.3 601 356.7 601 337.8 601C319 601 300 601 281.2 601C262.3 601 243.7 601 225 601C206.3 601 187.7 601 169 601C150.3 601 131.7 601 112.8 601C94 601 75 601 56.2 601C37.3 601 18.7 601 9.3 601L0 601Z" fill="#ff7c96"></path><path d="M0 549L9.3 550.3C18.7 551.7 37.3 554.3 56.2 552.3C75 550.3 94 543.7 112.8 542.3C131.7 541 150.3 545 169 548.7C187.7 552.3 206.3 555.7 225 555.3C243.7 555 262.3 551 281.2 549.7C300 548.3 319 549.7 337.8 548C356.7 546.3 375.3 541.7 394 543C412.7 544.3 431.3 551.7 450 555.3C468.7 559 487.3 559 506.2 559.2C525 559.3 544 559.7 562.8 558C581.7 556.3 600.3 552.7 619 551.2C637.7 549.7 656.3 550.3 675 552C693.7 553.7 712.3 556.3 731.2 554.8C750 553.3 769 547.7 787.8 547.3C806.7 547 825.3 552 844 554.7C862.7 557.3 881.3 557.7 890.7 557.8L900 558L900 601L890.7 601C881.3 601 862.7 601 844 601C825.3 601 806.7 601 787.8 601C769 601 750 601 731.2 601C712.3 601 693.7 601 675 601C656.3 601 637.7 601 619 601C600.3 601 581.7 601 562.8 601C544 601 525 601 506.2 601C487.3 601 468.7 601 450 601C431.3 601 412.7 601 394 601C375.3 601 356.7 601 337.8 601C319 601 300 601 281.2 601C262.3 601 243.7 601 225 601C206.3 601 187.7 601 169 601C150.3 601 131.7 601 112.8 601C94 601 75 601 56.2 601C37.3 601 18.7 601 9.3 601L0 601Z" fill="#ff89a8"></path><path d="M0 564L9.3 562C18.7 560 37.3 556 56.2 555.3C75 554.7 94 557.3 112.8 557.7C131.7 558 150.3 556 169 556.7C187.7 557.3 206.3 560.7 225 563.7C243.7 566.7 262.3 569.3 281.2 569C300 568.7 319 565.3 337.8 564.8C356.7 564.3 375.3 566.7 394 568.2C412.7 569.7 431.3 570.3 450 570C468.7 569.7 487.3 568.3 506.2 565.2C525 562 544 557 562.8 555.5C581.7 554 600.3 556 619 556.5C637.7 557 656.3 556 675 556.8C693.7 557.7 712.3 560.3 731.2 560C750 559.7 769 556.3 787.8 556.3C806.7 556.3 825.3 559.7 844 563C862.7 566.3 881.3 569.7 890.7 571.3L900 573L900 601L890.7 601C881.3 601 862.7 601 844 601C825.3 601 806.7 601 787.8 601C769 601 750 601 731.2 601C712.3 601 693.7 601 675 601C656.3 601 637.7 601 619 601C600.3 601 581.7 601 562.8 601C544 601 525 601 506.2 601C487.3 601 468.7 601 450 601C431.3 601 412.7 601 394 601C375.3 601 356.7 601 337.8 601C319 601 300 601 281.2 601C262.3 601 243.7 601 225 601C206.3 601 187.7 601 169 601C150.3 601 131.7 601 112.8 601C94 601 75 601 56.2 601C37.3 601 18.7 601 9.3 601L0 601Z" fill="#ff97b9"></path><path d="M0 569L9.3 570.8C18.7 572.7 37.3 576.3 56.2 578.5C75 580.7 94 581.3 112.8 579.8C131.7 578.3 150.3 574.7 169 575.2C187.7 575.7 206.3 580.3 225 582.7C243.7 585 262.3 585 281.2 584.8C300 584.7 319 584.3 337.8 582.5C356.7 580.7 375.3 577.3 394 577.2C412.7 577 431.3 580 450 580.3C468.7 580.7 487.3 578.3 506.2 578.5C525 578.7 544 581.3 562.8 583.5C581.7 585.7 600.3 587.3 619 585.3C637.7 583.3 656.3 577.7 675 575.5C693.7 573.3 712.3 574.7 731.2 576.3C750 578 769 580 787.8 582C806.7 584 825.3 586 844 584.7C862.7 583.3 881.3 578.7 890.7 576.3L900 574L900 601L890.7 601C881.3 601 862.7 601 844 601C825.3 601 806.7 601 787.8 601C769 601 750 601 731.2 601C712.3 601 693.7 601 675 601C656.3 601 637.7 601 619 601C600.3 601 581.7 601 562.8 601C544 601 525 601 506.2 601C487.3 601 468.7 601 450 601C431.3 601 412.7 601 394 601C375.3 601 356.7 601 337.8 601C319 601 300 601 281.2 601C262.3 601 243.7 601 225 601C206.3 601 187.7 601 169 601C150.3 601 131.7 601 112.8 601C94 601 75 601 56.2 601C37.3 601 18.7 601 9.3 601L0 601Z" fill="#ffa4c8"></path></svg>